<svg viewBox="0 0 800 800" xmlns="http://www.w3.org/2000/svg"><path d="M793.2778587006503,514.4641210934063 L279.87221969333723,218.0492372090622 M793.2778587006503,514.4641210934063 L794.9217902296416,423.69923323529525 M278.35675980589656,129.12782954318033 L794.9217902296416,423.69923323529525 M279.87221969333723,218.0492372090622 L278.35675980589656,129.12782954318033 M279.87221969333723,218.0492372090622 L251.7017220775038,233.67958418560943 M251.7017220775038,233.67958418560943 L333.26905287072475,280.9827408278983 M333.26905287072475,280.9827408278983 L73.99214284845067,426.70933294949157 M73.99214284845067,426.70933294949157 L80.86719069681556,430.86326277896893 M411.09353811535203,630.3872668697119 L400.6922114320996,635.9710272560002 M400.6922114320996,635.9710272560002 L389.76378803291897,641.1990536110881 M389.76378803291897,641.1990536110881 L378.34476527103266,646.05259643999 M378.34476527103266,646.05259643999 L366.47362047901805,650.51421475356 M366.47362047901805,650.51421475356 L354.1905636671285,654.5677947025854 M354.1905636671285,654.5677947025854 L341.53747348944796,658.1986272283568 M341.53747348944796,658.1986272283568 L328.5576367483158,661.3935582995571 M328.5576367483158,661.3935582995571 L315.295711664896,664.1409230755515 M315.295711664896,664.1409230755515 L301.79744684161125,666.4307126772215 M301.79744684161125,666.4307126772215 L288.10959169542195,668.2545307978847 M288.10959169542195,668.2545307978847 L274.2795748549267,669.6057357843328 M274.2795748549267,669.6057357843328 L260.3554664481309,670.4793448289046 M260.3554664481309,670.4793448289046 L246.38574098495258,670.8721704568197 M246.38574098495258,670.8721704568197 L232.41907974702676,670.7827321275839 M232.41907974702676,670.7827321275839 L218.50402942778098,670.211406786265 M218.50402942778098,670.211406786265 L204.68909830664325,669.1602399640407 M204.68909830664325,669.1602399640407 L191.02230160351692,667.6331303136152 M191.02230160351692,667.6331303136152 L177.55105695588247,665.6356747741646 M177.55105695588247,665.6356747741646 L164.3220645155064,663.1751654574879 M164.3220645155064,663.1751654574879 L151.38102132663616,660.2605903475138 M151.38102132663616,660.2605903475138 L138.7724684800006,656.9026010223315 M138.7724684800006,656.9026010223315 L126.53962837214738,653.113414256224 M126.53962837214738,653.113414256224 L114.72425969797268,648.9067752656022 M114.72425969797268,648.9067752656022 L103.36653310040589,644.2978739062114 M103.36653310040589,644.2978739062114 L92.50466919031004,639.3033854066686 M92.50466919031004,639.3033854066686 L82.17515328619993,633.9412009691705 M82.17515328619993,633.9412009691705 L72.41225499484062,628.2305524127196 M72.41225499484062,628.2305524127196 L63.24819545508052,622.1917610756769 M63.24819545508052,622.1917610756769 L54.71281586657858,615.8462815457098 M54.71281586657858,615.8462815457098 L46.8337120887619,609.2164797263091 M46.8337120887619,609.2164797263091 L39.63586506673613,602.3257019371645 M39.63586506673613,602.3257019371645 L33.141923771292795,595.1979757510127 M33.141923771292795,595.1979757510127 L27.371811443744093,587.8581150585502 M27.371811443744093,587.8581150585502 L22.34287022066701,580.3314978183448 M22.34287022066701,580.3314978183448 L18.069791525075857,572.6439856908829 M18.069791525075857,572.6439856908829 L14.564625148250116,564.8218375538827 M14.564625148250116,564.8218375538827 L11.83668728429302,556.8916155695578 M11.83668728429302,556.8916155695578 L9.89257549444494,548.8801036439911 M9.89257549444494,548.8801036439911 L8.736240300051236,540.8141537881856 M8.736240300051236,540.8141537881856 L8.369040142272866,532.7206334298361 M8.369040142272866,532.7206334298361 L8.789544358222884,524.6263816853332 M8.789544358222884,524.6263816853332 L9.993899155757958,516.5579743822407 M9.993899155757958,516.5579743822407 L11.975556860211668,508.5418032263573 M11.975556860211668,508.5418032263573 L14.725570002825918,500.60391156214155 M14.725570002825918,500.60391156214155 L18.232484069635063,492.76991106233163 M18.232484069635063,492.76991106233163 L22.48259062180739,485.0648820486539 M22.48259062180739,485.0648820486539 L27.459788095880867,477.51338533739306 M27.459788095880867,477.51338533739306 L33.14583307948152,470.1393161180303 M33.14583307948152,470.1393161180303 L39.52027409600407,462.9658882754592 M39.52027409600407,462.9658882754592 L46.56072675593725,456.01551217230315 M46.56072675593725,456.01551217230315 L54.242755150590256,449.30980801134035 M54.242755150590256,449.30980801134035 L62.540105712668264,442.8694933284907 M62.540105712668264,442.8694933284907 L71.42480971346458,436.7143797227458 M71.42480971346458,436.7143797227458 L80.86719069681556,430.86326277896893 M411.09353811535203,630.3872668697119 L418.3539851204757,634.7740563226894 M418.3539851204757,634.7740563226894 L677.8045007139033,480.78839953533657 M677.8045007139033,480.78839953533657 L765.1057562141566,531.4168180925878 M765.1057562141566,531.4168180925878 L793.2778587006503,514.4641210934063 M140.96993255344574,404.9596800328819 L153.3597918015505,401.41786909052576 M153.3597918015505,401.41786909052576 L166.05039715694906,398.2962095937093 M166.05039715694906,398.2962095937093 L179.00073099113797,395.60415023469 M179.00073099113797,395.60415023469 L192.16914467299662,393.3498218430291 M192.16914467299662,393.3498218430291 L205.51336974849622,391.54002759473207 M205.51336974849622,391.54002759473207 L218.99073257060627,390.18019978039973 M218.99073257060627,390.18019978039973 L232.55817995011103,389.274435322518 M232.55817995011103,389.274435322518 L246.17243623930227,388.8254413758078 M246.17243623930227,388.8254413758078 L259.79012288258986,388.8345718934326 M259.79012288258986,388.8345718934326 L273.3678258842075,389.30180534880213 M273.3678258842075,389.30180534880213 L286.86228107927207,390.22572597117335 M286.86228107927207,390.22572597117335 L300.2304174408516,391.60357086059565 M300.2304174408516,391.60357086059565 L313.42952786645026,393.4311964430101 M313.42952786645026,393.4311964430101 L326.4173368156463,395.70310779974557 M326.4173368156463,395.70310779974557 L339.15216250472656,398.4124511379146 M339.15216250472656,398.4124511379146 L351.59296169742936,401.5510475814279 M351.59296169742936,401.5510475814279 L363.6995076688312,405.1093872276168 M363.6995076688312,405.1093872276168 L375.43247328684316,409.0766649153277 M375.43247328684316,409.0766649153277 L386.7535479019278,413.44079384172863 M386.7535479019278,413.44079384172863 L397.62555122968456,418.18842616051745 M397.62555122968456,418.18842616051745 L408.0125247383371,423.3049946216303 M408.0125247383371,423.3049946216303 L417.8798848674581,428.77472330945864 M417.8798848674581,428.77472330945864 L427.1945060640293,434.5806697920564 M427.1945060640293,434.5806697920564 L435.92481804594627,440.7047724060896 M435.92481804594627,440.7047724060896 L444.0409298692737,447.12788482377755 M444.0409298692737,447.12788482377755 L451.51474956109263,453.82980518506827 M451.51474956109263,453.82980518506827 L458.32005254429333,460.7893492890318 M458.32005254429333,460.7893492890318 L464.4326068389474,467.9843914472882 M464.4326068389474,467.9843914472882 L469.8302640908226,475.3919219363196 M469.8302640908226,475.3919219363196 L474.4930400098436,482.98810994158714 M474.4930400098436,482.98810994158714 L478.4032345115445,490.74835068577875 M478.4032345115445,490.74835068577875 L481.545478976466,498.6473722301814 M481.545478976466,498.6473722301814 L483.9068529334255,506.6592678329346 M483.9068529334255,506.6592678329346 L485.47692681281393,514.7576013426517 M485.47692681281393,514.7576013426517 L486.24786767547613,522.915460780715 M486.24786767547613,522.915460780715 L486.2144315602869,531.1055761017644 M486.2144315602869,531.1055761017644 L485.3740945757944,539.3003658030661 M485.3740945757944,539.3003658030661 L483.72706383785015,547.4720708222354 M483.72706383785015,547.4720708222354 L481.2762778089588,555.5928205073433 M481.2762778089588,555.5928205073433 L478.02750498218495,563.6347341956383 M478.02750498218495,563.6347341956383 L473.98927632676566,571.5700457755643 M473.98927632676566,571.5700457755643 L469.1729706951079,579.3711529831155 M469.1729706951079,579.3711529831155 L463.5927539002923,587.0107809671981 M463.5927539002923,587.0107809671981 L457.26557086292837,594.4620242905654 M140.96993255344574,404.9596800328819 L346.9682677619884,288.9272953643289 M346.9682677619884,288.9272953643289 L663.369150741843,472.4169398556558 M663.369150741843,472.4169398556558 L457.26557086292837,594.4620242905654 M83.72637853664708,621.6983401402144 L74.79230122981141,615.8069482966442 M74.79230122981141,615.8069482966442 L66.49735873138633,609.6042087884595 M66.49735873138633,609.6042087884595 L58.87071103003251,603.1137928235682 M58.87071103003251,603.1137928235682 L51.93881818058588,596.3603527478388 M51.93881818058588,596.3603527478388 L45.725210548437985,589.3695070214969 M45.725210548437985,589.3695070214969 L40.250752574406704,582.1675259480028 M40.250752574406704,582.1675259480028 L35.53337849180508,574.7813478888471 M35.53337849180508,574.7813478888471 L31.58802317662918,567.2384957021171 M31.58802317662918,567.2384957021171 L28.42671391624043,559.5668745844981 M28.42671391624043,559.5668745844981 L26.058599961577954,551.794642278011 M26.058599961577954,551.794642278011 L24.48968024631108,543.9502744342047 M24.48968024631108,543.9502744342047 L23.723183124297805,536.0622189007701 M23.723183124297805,536.0622189007701 L23.759302996630026,528.1589707900466 M23.759302996630026,528.1589707900466 L24.59532342861337,520.2688998738477 M24.59532342861337,520.2688998738477 L26.225787105373513,512.4201112909598 M26.225787105373513,512.4201112909598 L28.642424684046034,504.64037770894004 M28.642424684046034,504.64037770894004 L31.834133949684883,496.9571322325447 M31.834133949684883,496.9571322325447 L35.78725784205682,489.3972199110483 M35.78725784205682,489.3972199110483 L40.48555709161036,481.98692285871005 M40.48555709161036,481.98692285871005 L45.91026587762781,474.7518528178849 M45.91026587762781,474.7518528178849 L52.04028676107407,467.7168275241406 M52.04028676107407,467.7168275241406 L58.85217625045209,460.905889844145 M58.85217625045209,460.905889844145 L66.32033463862058,454.3421374848548 M66.32033463862058,454.3421374848548 L74.4170594020618,448.0477393195544 M74.4170594020618,448.0477393195544 L83.11266799685887,442.04381307051256 M83.11266799685887,442.04381307051256 L92.37565090182233,436.35043101482523 M92.37565090182233,436.35043101482523 L102.1727733257697,430.98649333775165 M102.1727733257697,430.98649333775165 L112.46911929353871,425.9697536859641 M112.46911929353871,425.9697536859641 L123.2283099846764,421.3167434223276 M123.2283099846764,421.3167434223276 L134.41259709741757,417.04270207069214 M134.41259709741757,417.04270207069214 L145.9829772331207,413.16162652878137 M145.9829772331207,413.16162652878137 L157.89929033572864,409.68613054890193 M157.89929033572864,409.68613054890193 L170.1204545128616,406.62749151484263 M170.1204545128616,406.62749151484263 L182.6044092188056,403.99562628127063 M182.6044092188056,403.99562628127063 L195.30839082992617,401.79903385137834 M195.30839082992617,401.79903385137834 L208.18902952510592,400.0447861028801 M208.18902952510592,400.0447861028801 L221.20244347329066,398.7385161212426 M221.20244347329066,398.7385161212426 L234.3043512840212,397.8844290012485 M234.3043512840212,397.8844290012485 L247.4502815560986,397.4852662007073 M247.4502815560986,397.4852662007073 L260.5956065577275,397.5423171646021 M260.5956065577275,397.5423171646021 L273.6957170449331,398.05538433562907 M273.6957170449331,398.05538433562907 L286.70611843316817,399.02282655199826 M286.70611843316817,399.02282655199826 L299.5826266508606,400.4415433152658 M299.5826266508606,400.4415433152658 L312.2814029310049,402.30696245725386 M312.2814029310049,402.30696245725386 L324.75911718699274,404.6131001385277 M324.75911718699274,404.6131001385277 L336.9731007655654,407.3525086980373 M336.9731007655654,407.3525086980373 L348.881455246524,410.5163346500035 M348.881455246524,410.5163346500035 L360.4431167846884,414.09434629483513 M360.4431167846884,414.09434629483513 L371.6181061678085,418.0749011471304 M371.6181061678085,418.0749011471304 L382.36752599513,422.4450401663299 M382.36752599513,422.4450401663299 L392.6537579127716,427.19046664194644 M392.6537579127716,427.19046664194644 L402.440559376225,432.2956018986849 M402.440559376225,432.2956018986849 L411.69320174204466,437.7436105653794 M411.69320174204466,437.7436105653794 L420.37856762225255,443.5164492207378 M420.37856762225255,443.5164492207378 L428.4652730580276,449.5949136100657 M428.4652730580276,449.5949136100657 L435.9237971379026,455.9586744206979 M435.9237971379026,455.9586744206979 L442.7265750567712,462.58633996647825 M442.7265750567712,462.58633996647825 L448.8481475143443,469.45549861461257 M448.8481475143443,469.45549861461257 L454.2651791338545,476.5428232302213 M454.2651791338545,476.5428232302213 L458.9566800749407,483.82406318553785 M458.9566800749407,483.82406318553785 L462.9040073980593,491.27418797338873 M462.9040073980593,491.27418797338873 L466.09097225257113,498.8674261726086 M466.09097225257113,498.8674261726086 L468.5039997199489,506.57733534840077 M468.5039997199489,506.57733534840077 L470.13209506279577,514.3769002970889 M470.13209506279577,514.3769002970889 L470.96700374399074,522.2386440601969 M470.96700374399074,522.2386440601969 L471.00324310836265,530.1346645658843 M471.00324310836265,530.1346645658843 L470.23812361113966,538.0367712066837 M470.23812361113966,538.0367712066837 L468.67187016944087,545.9165667314858 M468.67187016944087,545.9165667314858 L466.3076007529926,553.7455779854646 M466.3076007529926,553.7455779854646 L463.15138200293666,561.4953055081345 M463.15138200293666,561.4953055081345 L459.2121948104607,569.1373806128462 M459.2121948104607,569.1373806128462 L454.5019755481089,576.6436673745765 M454.5019755481089,576.6436673745765 L449.03561102789206,583.9863545852027 M449.03561102789206,583.9863545852027 L442.8309304786375,591.1380505212908 M442.8309304786375,591.1380505212908 L435.90860411689465,598.0719859110113 M435.90860411689465,598.0719859110113 L428.2920948215334,604.7620155526702 M428.2920948215334,604.7620155526702 L420.0077251303585,611.1827997417998 M420.0077251303585,611.1827997417998 L411.08440779322575,617.3098954987672 M411.08440779322575,617.3098954987672 L401.5537030358024,623.1198624105481 M401.5537030358024,623.1198624105481 L391.4496599397919,628.5903496271359 M391.4496599397919,628.5903496271359 L380.80863920246986,633.7002566828919 M380.80863920246986,633.7002566828919 L369.66930951207814,638.429788366938 M369.66930951207814,638.429788366938 L358.0723708263982,642.7605357753355 M358.0723708263982,642.7605357753355 L346.06050455873435,646.6755901004823 M346.06050455873435,646.6755901004823 L333.6780958524222,650.1596287908549 M333.6780958524222,650.1596287908549 L320.97119651269827,653.1989600838081 M320.97119651269827,653.1989600838081 L307.98715779609415,655.7816392154695 M307.98715779609415,655.7816392154695 L294.7745962466871,657.8974619363496 M294.7745962466871,657.8974619363496 L281.3831068974138,659.5380759281903 M281.3831068974138,659.5380759281903 L267.8630087307838,660.6970023276515 M267.8630087307838,660.6970023276515 L254.2653236998869,661.3696071010063 M254.2653236998869,661.3696071010063 L240.64127879089023,661.5532435218954 M240.64127879089023,661.5532435218954 L227.04223661878763,661.2472168191943 M227.04223661878763,661.2472168191943 L213.51952693608698,660.452711691435 M213.51952693608698,660.452711691435 L200.1241556052044,659.1728605472896 M200.1241556052044,659.1728605472896 L186.90646493655464,657.4127779725193 M186.90646493655464,657.4127779725193 L173.91623550918854,655.1793671767917 M173.91623550918854,655.1793671767917 L161.2020596305281,652.4814985833649 M161.2020596305281,652.4814985833649 L148.81144353379864,649.3298066102927 M148.81144353379864,649.3298066102927 L136.79057637289696,645.7366613959387 M136.79057637289696,645.7366613959387 L125.18398444737306,641.7161746441752 M125.18398444737306,641.7161746441752 L114.03440101764306,637.2841128624658 M114.03440101764306,637.2841128624658 L103.38281872561157,632.4576981711606 M103.38281872561157,632.4576981711606 L93.26797699451288,627.2557162005812 M93.26797699451288,627.2557162005812 L83.72637853664708,621.6983401402144 M278.35675980589656,129.12782954318033 L250.01281321211957,144.6572971269626 M250.01281321211957,144.6572971269626 L332.06479376070985,191.6576448598076 M332.06479376070985,191.6576448598076 L71.1552931896872,336.47489898223887 M71.1552931896872,336.47489898223887 L78.07139819193367,340.6034289148458 M78.07139819193367,340.6034289148458 L68.56813920292689,346.4188171982817 M68.56813920292689,346.4188171982817 L59.62580933110246,352.5364076688107 M59.62580933110246,352.5364076688107 L51.274279115787124,358.93752841721795 M51.274279115787124,358.93752841721795 L43.54170318205718,365.6024973034368 M43.54170318205718,365.6024973034368 L36.4545126681935,372.5107312211314 M36.4545126681935,372.5107312211314 L30.037312014999998,379.64074920892176 M30.037312014999998,379.64074920892176 L24.312643498960824,386.97028414168705 M24.312643498960824,386.97028414168705 L19.301106456675882,394.4762693218536 M19.301106456675882,394.4762693218536 L15.021080213047185,402.1349598399662 M15.021080213047185,402.1349598399662 L11.488790528887648,409.9219480493774 M11.488790528887648,409.9219480493774 L8.71805649370475,417.8123087127517 M8.71805649370475,417.8123087127517 L6.720430387497629,425.78058714432456 M6.720430387497629,425.78058714432456 L5.504942699463186,433.80089822139865 M5.504942699463186,433.80089822139865 L5.078209770358512,441.8470091424299 M5.078209770358512,441.8470091424299 L5.444137526628822,449.8925026523661 M5.444137526628822,449.8925026523661 L6.604193707816137,457.91069832567 M6.604193707816137,457.91069832567 L8.557039215473196,465.8748861459126 M8.557039215473196,465.8748861459126 L11.298726088867568,473.75836999280085 M11.298726088867568,473.75836999280085 L14.822641910645189,481.5345200523742 M14.822641910645189,481.5345200523742 L19.11943743456868,489.17692560234264 M19.11943743456868,489.17692560234264 L24.177011240710954,496.6594761441763 M24.177011240710954,496.6594761441763 L29.98060200706277,503.9564548719609 M29.98060200706277,503.9564548719609 L36.512779116040974,511.0426247534988 M36.512779116040974,511.0426247534988 L43.753512474192576,517.8933085434006 M43.753512474192576,517.8933085434006 L51.68002670302354,524.4846098705137 M51.68002670302354,524.4846098705137 L60.2671972945289,530.793308926734 M60.2671972945289,530.793308926734 L69.48726563434974,536.7971600449167 M69.48726563434974,536.7971600449167 L79.31021087178254,542.4748231598155 M79.31021087178254,542.4748231598155 L89.70361432580313,547.8060846225844 M89.70361432580313,547.8060846225844 L100.63299307045162,552.7718138915174 M100.63299307045162,552.7718138915174 L112.061631549033,557.3542133506262 M112.061631549033,557.3542133506262 L123.95106516131682,561.5366945504387 M123.95106516131682,561.5366945504387 L136.26086414509336,565.3041462195717 M136.26086414509336,565.3041462195717 L148.94899800871968,568.6428939208449 M148.94899800871968,568.6428939208449 L161.97196080463928,571.5407835178387 M161.97196080463928,571.5407835178387 L175.28491723863795,573.9872178510587 M175.28491723863795,573.9872178510587 L188.8418666353411,575.9732546916548 M188.8418666353411,575.9732546916548 L202.59579699293306,577.4916389381657 M202.59579699293306,577.4916389381657 L216.49897269473757,578.536802006255 M216.49897269473757,578.536802006255 L230.5030554553411,579.1048649907206 M230.5030554553411,579.1048649907206 L244.55920976276266,579.1937926626057 M244.55920976276266,579.1937926626057 L258.6185607841645,578.8032100128192 M258.6185607841645,578.8032100128192 L272.63209783082004,577.9345900769473 M272.63209783082004,577.9345900769473 L286.5510182443339,576.5911042261894 M286.5510182443339,576.5911042261894 L300.32692654998596,574.7777100225624 M300.32692654998596,574.7777100225624 L313.9120734086868,572.5010154525058 M313.9120734086868,572.5010154525058 L327.2593938243717,569.7693741088362 M327.2593938243717,569.7693741088362 L340.3228310887505,566.5927438255002 M340.3228310887505,566.5927438255002 L353.0574271464877,562.9827297049308 M353.0574271464877,562.9827297049308 L365.4196056655718,558.9524181746689 M365.4196056655718,558.9524181746689 L377.36720917001963,554.5164423057766 M377.36720917001963,554.5164423057766 L388.85976137171457,549.6908322863142 M388.85976137171457,549.6908322863142 L399.8585317376156,544.4929380584614 M399.8585317376156,544.4929380584614 L410.3267844535993,538.9414106264586 M410.3267844535993,538.9414106264586 L417.63309639630955,543.3028723947002 M417.63309639630955,543.3028723947002 L678.7194584342685,390.2255486926906 M678.7194584342685,390.2255486926906 L766.5762148227959,440.5509408810646 M766.5762148227959,440.5509408810646 L794.9217902296416,423.69923323529525 M456.7954165953473,503.2247990232113 L463.1631703206484,495.81709827250177 M463.1631703206484,495.81709827250177 L468.7791581438059,488.2222101967134 M468.7791581438059,488.2222101967134 L473.6263384897346,480.46688936735245 M473.6263384897346,480.46688936735245 L477.6904679768434,472.5782563355703 M477.6904679768434,472.5782563355703 L480.9601090770744,464.58375578767794 M480.9601090770744,464.58375578767794 L483.42669116962975,456.5109938702299 M483.42669116962975,456.5109938702299 L485.08442432357293,448.3876891319813 M485.08442432357293,448.3876891319813 L485.9303670024518,440.2415486642377 M485.9303670024518,440.2415486642377 L485.96432647727767,432.1001671107483 M485.96432647727767,432.1001671107483 L485.1888582030467,423.9909610949222 M485.1888582030467,423.9909610949222 L483.60925453566404,415.9410361441269 M483.60925453566404,415.9410361441269 L481.2334125454134,407.9771404020771 M481.2334125454134,407.9771404020771 L478.0718414600269,400.1255476333225 M478.0718414600269,400.1255476333225 L474.13755602733323,392.41200403967315 M474.13755602733323,392.41200403967315 L469.446033268386,384.8616235922854 M469.446033268386,384.8616235922854 L464.015094855554,377.4988559743077 M464.015094855554,377.4988559743077 L457.86485937513675,370.34738054175614 M457.86485937513675,370.34738054175614 L451.01762127509244,363.430059609287 M451.01762127509244,363.430059609287 L443.49776979131747,356.7688760245591 M443.49776979131747,356.7688760245591 L435.33169724540966,350.38487620867835 M435.33169724540966,350.38487620867835 L426.54767298489435,344.2981296998713 M426.54767298489435,344.2981296998713 L417.1757744852765,338.52765655990254 M417.1757744852765,338.52765655990254 L407.2477669519618,333.0913985730478 M407.2477669519618,333.0913985730478 L396.7969784903399,328.006185042501 M396.7969784903399,328.006185042501 L385.8582022763999,323.2876859445046 M385.8582022763999,323.2876859445046 L374.4676130707595,318.9503701832995 M374.4676130707595,318.9503701832995 L362.6626131388076,315.0074950585047 M362.6626131388076,315.0074950585047 L350.48174041463324,311.47106501339346 M350.48174041463324,311.47106501339346 L337.9645540521941,308.35181128683774 M337.9645540521941,308.35181128683774 L325.1515169718391,305.65917849341173 M325.1515169718391,305.65917849341173 L312.08391244781683,303.40128917752736 M312.08391244781683,303.40128917752736 L298.803665238543,301.58494980943397 M298.803665238543,301.58494980943397 L285.3532967350269,300.21561727863053 M285.3532967350269,300.21561727863053 L271.7757619859842,299.2974064387123 M271.7757619859842,299.2974064387123 L258.1143818815026,298.83306100600487 M258.1143818815026,298.83306100600487 L244.41267154541333,298.82398692877695 M244.41267154541333,298.82398692877695 L230.71429701650112,299.27020557957644 M230.71429701650112,299.27020557957644 L217.06288907756826,300.1703724039516 M217.06288907756826,300.1703724039516 L203.50197561178965,301.52179904552924 M203.50197561178965,301.52179904552924 L190.0748615668528,303.3204169747314 M190.0748615668528,303.3204169747314 L176.82447112353236,305.5608315060489 M176.82447112353236,305.5608315060489 L163.7933221241801,308.23628643896296 M163.7933221241801,308.23628643896296 L151.02331032122416,311.3387069475166 M151.02331032122416,311.3387069475166 L138.55569832711183,314.85870922215383 M138.55569832711183,314.85870922215383 L345.8460461875663,199.5517097187636 M345.8460461875663,199.5517097187636 L664.1929772479482,381.904607960646 M664.1929772479482,381.904607960646 L456.7954165953473,503.2247990232113 M80.87597258744489,530.3027456037023 L90.47626539520206,535.8279600668121 M90.47626539520206,535.8279600668121 L100.65367573034678,540.9998840166003 M100.65367573034678,540.9998840166003 L111.37147354357194,545.7984512937527 M111.37147354357194,545.7984512937527 L122.59067496312292,550.2049753395693 M122.59067496312292,550.2049753395693 L134.27002568351276,554.2023243116806 M134.27002568351276,554.2023243116806 L146.36651697828557,557.774813980867 M146.36651697828557,557.774813980867 L158.83533301713607,560.9084059378698 M158.83533301713607,560.9084059378698 L171.62998203078763,563.5907940098836 M171.62998203078763,563.5907940098836 L184.70264450768966,565.8113985873468 M184.70264450768966,565.8113985873468 L198.0044059054008,567.5613948572501 M198.0044059054008,567.5613948572501 L211.4851540049172,568.8339149605985 M211.4851540049172,568.8339149605985 L225.09420979768566,569.623870509258 M225.09420979768566,569.623870509258 L238.78022526292636,569.9281450914574 M238.78022526292636,569.9281450914574 L252.49152553052653,569.7455600408512 M252.49152553052653,569.7455600408512 L266.1764021102367,569.076806601493 M266.1764021102367,569.076806601493 L279.7832827669925,567.9245179896083 M279.7832827669925,567.9245179896083 L293.2608016843169,566.2933045105541 M293.2608016843169,566.2933045105541 L306.5583009314521,564.1896118413813 M306.5583009314521,564.1896118413813 L319.6258518663806,561.6217494147097 M319.6258518663806,561.6217494147097 L332.41451158721554,558.5998689197444 M332.41451158721554,558.5998689197444 L344.87661183985733,555.1358534072971 M344.87661183985733,555.1358534072971 L356.9657936264454,551.2433236025973 M356.9657936264454,551.2433236025973 L368.6373769780704,546.9375222140798 M368.6373769780704,546.9375222140798 L379.8483984283579,542.2352694957681 M379.8483984283579,542.2352694957681 L390.5578906504939,537.1548774129957 M390.5578906504939,537.1548774129957 L400.72693269176085,531.7160363325631 M400.72693269176085,531.7160363325631 L410.318928517227,525.9397342587595 M410.318928517227,525.9397342587595 L419.2996106735025,519.8482020985626 M419.2996106735025,519.8482020985626 L427.63721864578275,513.4647535929049 M427.63721864578275,513.4647535929049 L435.30265842604115,506.81369865209103 M435.30265842604115,506.81369865209103 L442.269444790956,499.9202379636456 M442.269444790956,499.9202379636456 L448.5139723289296,492.810372140024 M448.5139723289296,492.810372140024 L454.01544786055956,485.5107212084538 M454.01544786055956,485.5107212084538 L458.7559388724008,478.0485228731809 M458.7559388724008,478.0485228731809 L462.72047537813313,470.45143062522015 M462.72047537813313,470.45143062522015 L465.8970577511196,462.74741943835386 M465.8970577511196,462.74741943835386 L468.2766615402809,454.9646942801671 M468.2766615402809,454.9646942801671 L469.85319570873185,447.13158866988886 M469.85319570873185,447.13158866988886 L470.6235369961147,439.2764084932646 M470.6235369961147,439.2764084932646 L470.5874736627372,431.42738268440667 M470.5874736627372,431.42738268440667 L469.74772675057955,423.6125332677968 M469.74772675057955,423.6125332677968 L468.10982768763796,415.8595939795817 M468.10982768763796,415.8595939795817 L465.6820966565652,408.19587455045075 M465.6820966565652,408.19587455045075 L462.47561045027146,400.64822434703746 M462.47561045027146,400.64822434703746 L458.50404120618697,393.2429221028094 M458.50404120618697,393.2429221028094 L453.7836901426169,386.0055783599911 M453.7836901426169,386.0055783599911 L448.3333265094554,378.9610661008626 M448.3333265094554,378.9610661008626 L442.17407954711757,372.1334821393955 M442.17407954711757,372.1334821393955 L435.32943696270564,365.54600450911136 M435.32943696270564,365.54600450911136 L427.82502180205427,359.22090054791727 M427.82502180205427,359.22090054791727 L419.6885738208837,353.17942323498363 M419.6885738208837,353.17942323498363 L410.94979908603017,347.44176917508616 M410.94979908603017,347.44176917508616 L401.6402763000354,342.0270164513855 M401.6402763000354,342.0270164513855 L391.79332636801416,336.9530892242709 M391.79332636801416,336.9530892242709 L381.4438894875773,332.2367109573459 M381.4438894875773,332.2367109573459 L370.6284272427253,327.89335622035134 M370.6284272427253,327.89335622035134 L359.38478373432883,323.9372257208379 M359.38478373432883,323.9372257208379 L347.752088328215,320.3811910795209 M347.752088328215,320.3811910795209 L335.77055732369064,317.2368159454139 M335.77055732369064,317.2368159454139 L323.48149695889447,314.51426246395886 M323.48149695889447,314.51426246395886 L310.92705197497594,312.2223237573698 M310.92705197497594,312.2223237573698 L298.1501410740741,310.3683965788245 M298.1501410740741,310.3683965788245 L285.1943476684452,308.95842375454777 M285.1943476684452,308.95842375454777 L272.103766398287,307.9969460797698 M272.103766398287,307.9969460797698 L258.9228389946276,307.4870427412778 M258.9228389946276,307.4870427412778 L245.6963195156601,307.43034360978316 M245.6963195156601,307.43034360978316 L232.46907752976784,307.82704489381297 M232.46907752976784,307.82704489381297 L219.286001613356,308.6758660116464 M219.286001613356,308.6758660116464 L206.19182369690677,309.97408435037363 M206.19182369690677,309.97408435037363 L193.23108542889435,311.717523682222 M193.23108542889435,311.717523682222 L180.44792756503807,313.90058954381556 M180.44792756503807,313.90058954381556 L167.88597705819808,316.51625843824434 M167.88597705819808,316.51625843824434 L155.58825250596234,319.55608935188366 M155.58825250596234,319.55608935188366 L143.59706687456497,323.0102328788762 M143.59706687456497,323.0102328788762 L131.95375038769419,326.8674880857436 M131.95375038769419,326.8674880857436 L120.69870785337594,331.11532640698033 M120.69870785337594,331.11532640698033 L109.87118255005402,335.7398450269301 M109.87118255005402,335.7398450269301 L99.50915724902381,340.72590640072667 M99.50915724902381,340.72590640072667 L89.64923923116362,346.0570891988433 M89.64923923116362,346.0570891988433 L80.3265663856505,351.715757286213 M80.3265663856505,351.715757286213 L71.57458752366557,357.683134851597 M71.57458752366557,357.683134851597 L63.4250180344211,363.93928085389166 M63.4250180344211,363.93928085389166 L55.90773747390739,370.46321474160897 M55.90773747390739,370.46321474160897 L49.05063551745087,377.2329106277828 M49.05063551745087,377.2329106277828 L42.87948826521074,384.22541871545513 M42.87948826521074,384.22541871545513 L37.41790440259058,391.4168489261815 M37.41790440259058,391.4168489261815 L32.68713396585247,398.78254002606144 M32.68713396585247,398.78254002606144 L28.70608270403335,406.2970404779926 M28.70608270403335,406.2970404779926 L25.491115680678888,413.93423121754984 M25.491115680678888,413.93423121754984 L23.05600100223438,421.6674323456428 M23.05600100223438,421.6674323456428 L21.411937126730265,429.4693780723128 M21.411937126730265,429.4693780723128 L20.5672727304094,437.31246365507593 M20.5672727304094,437.31246365507593 L20.52752740649396,445.16875240047546 M20.52752740649396,445.16875240047546 L21.295462951282786,453.01004306579784 M21.295462951282786,453.01004306579784 L22.87091199285328,460.80800831148287 M22.87091199285328,460.80800831148287 L25.25065373210316,468.53436629436976 M25.25065373210316,468.53436629436976 L28.42867872084173,476.16080607140736 M28.42867872084173,476.16080607140736 L32.39580629734553,483.6593313228673 M32.39580629734553,483.6593313228673 L37.13995834201546,491.0021954453714 M37.13995834201546,491.0021954453714 L42.646129227530196,498.16203066886953 M42.646129227530196,498.16203066886953 L48.896293145871596,505.1120491371996 M48.896293145871596,505.1120491371996 L55.869473445453025,511.8261261071233 M55.869473445453025,511.8261261071233 L63.54200840898329,518.278783965285 M63.54200840898329,518.278783965285 L71.88728552831253,524.4455048199961 M71.88728552831253,524.4455048199961 L80.87597258744489,530.3027456037023 M765.1057562141566,531.4168180925878 L766.5762148227959,440.5509408810646 M251.7017220775038,233.67958418560943 L250.01281321211957,144.6572971269626 M677.8045007139033,480.78839953533657 L678.7194584342685,390.2255486926906 M418.3539851204757,634.7740563226894 L417.63309639630955,543.3028723947002 M410.3267844535993,538.9414106264586 L411.09353811535203,630.3872668697119 M78.07139819193367,340.6034289148458 L80.86719069681556,430.86326277896893 M138.55569832711183,314.85870922215383 L140.96993255344574,404.9596800328819 M456.7954165953473,503.2247990232113 L457.26557086292837,594.4620242905654 M664.1929772479482,381.904607960646 L663.369150741843,472.4169398556558 M346.9682677619884,288.9272953643289 L345.8460461875663,199.5517097187636 M83.72637853664708,621.6983401402144 L80.87597258744489,530.3027456037023 M332.06479376070985,191.6576448598076 L333.26905287072475,280.9827408278983 M73.99214284845067,426.70933294949157 L71.1552931896872,336.47489898223887" stroke="black"  stroke-width="4"  fill="red"/></svg>